<svg width="119" height="22" viewBox="0 0 119 22" fill="none" xmlns="http://www.w3.org/2000/svg">
<path fill-rule="evenodd" clip-rule="evenodd" d="M35.3444 0L31.1397 2.46125V3.806H36.6014V0H35.3444ZM112.469 5.11912C111.215 5.11918 109.705 5.24937 108.84 5.32396C108.493 5.3539 108.249 5.37488 108.168 5.37488V21.3042H111.653V15.8675C112.162 15.9527 112.677 15.9954 113.191 15.9954C116.393 15.9954 118.843 13.8531 118.843 10.5903C118.843 6.87933 116.143 5.11932 112.469 5.11912ZM112.783 13.0212C112.398 13.03 112.015 12.9671 111.653 12.8356V8.31875C111.834 8.2885 112.439 8.2885 112.783 8.2885C114.322 8.2885 115.357 9.05575 115.357 10.6535C115.357 12.1907 114.291 13.0212 112.783 13.0212ZM104.28 15.7149H100.92V18.106H105.249V21.3042H97.4966V5.31025H105.002V8.50575H100.92V12.6349H104.28V15.7149ZM88.2378 13.1464V5.31025H84.8169V21.3042H88.2378V16.1287H88.8656L92.8829 21.3042H94.3342V17.5945C94.0503 17.2001 93.7295 16.7623 93.4064 16.3213C92.9432 15.6892 92.4753 15.0506 92.1046 14.5241C92.515 13.3114 93.0717 11.5486 93.4218 10.3331L94.8977 5.31025H91.3127L88.9901 13.145L88.2378 13.1464ZM44.2311 13.3073C44.2311 15.8689 46.2719 17.0514 47.5275 17.0514V17.05V9.56588C46.2691 9.56588 44.2311 10.747 44.2311 13.3073ZM34.9368 21.3056V16.7956V16.7942L34.3801 16.7929L30.6746 21.3029H28.8226V5.3075H32.2695V7.744C32.2695 9.4324 32.1719 12.3188 32.1059 14.2695L32.1059 14.2699L32.1059 14.2708L32.1059 14.2711L32.1058 14.272L32.1058 14.2723L32.0876 14.8129H32.6525L34.9368 11.781V5.31163H38.3837V21.3056H34.9368ZM2.22954 11.4221C2.22954 14.6204 1.81372 17.787 0 18.458V21.8818C4.23749 21.4349 5.55607 17.6591 5.55607 12.0285V8.1345H7.81707V21.3139H11.264V5.30888H2.22954V11.4221ZM54.1792 13.3169C54.1792 10.7552 52.1384 9.57275 50.8828 9.57275V17.0514C52.1384 17.0514 54.1792 15.8771 54.1792 13.3169ZM50.8828 19.8426C54.6497 19.8426 57.6644 17.1545 57.6644 13.3169C57.6644 9.47787 54.6511 6.78975 50.8828 6.78975V4.60763H47.5275V6.78013C43.7619 6.78013 40.7472 9.46963 40.7472 13.3073C40.7472 17.1449 43.7592 19.833 47.5275 19.833V21.7525H50.8828V19.8426ZM60.9513 5.31025C61.733 6.72814 62.4891 8.16021 63.2191 9.60575V9.60438L63.8784 9.59475C64.4395 8.45191 65.2519 6.94993 65.9113 5.73075L65.9115 5.73042L66.1394 5.30888H67.6453V9.69375L65.6675 13.0213L67.923 16.8919V21.307H66.4157L63.8756 16.445H63.2164L60.6777 21.3056H59.1704V16.8919L61.4204 13.0199L59.4439 9.69238V5.31025H60.9513ZM78.7288 5.31025H73.3587L69.1527 21.3042H72.668L73.3587 18.4869H78.7288L79.4195 21.3029H82.9348L78.7288 5.31025ZM74.1124 15.5485H77.9724L76.3419 8.79725H75.7127L74.1124 15.5485ZM22.7263 5.31025H17.3576L13.1516 21.3042H16.6668L17.359 18.4869H22.7263L23.417 21.3029H26.9323L22.7263 5.31025ZM18.1099 15.5485H21.9712L20.3394 8.79725H19.7116L18.1099 15.5485Z" fill="white"/>
</svg>
