<svg width="507" height="313" viewBox="0 0 507 313" fill="none" xmlns="http://www.w3.org/2000/svg">
<g opacity="0.87314">
<mask id="mask0" mask-type="alpha" maskUnits="userSpaceOnUse" x="43" y="183" width="430" height="126">
<path fill-rule="evenodd" clip-rule="evenodd" d="M43.546 183.379H472.261V308.708H43.546V183.379Z" fill="white"/>
</mask>
<g mask="url(#mask0)">
<path fill-rule="evenodd" clip-rule="evenodd" d="M177.545 183.379C114.922 183.379 43.546 212.04 43.546 233.824C43.546 255.608 94.3121 273.268 156.934 273.268C188.376 273.268 216.827 268.815 237.366 261.625C264.812 281.739 314.028 308.709 384.296 308.709C449.22 308.709 472.261 291.125 472.261 264.496C472.261 237.867 237.486 183.379 177.545 183.379Z" fill="#350909"/>
</g>
</g>
<g filter="url(#filter0_d)">
<path fill-rule="evenodd" clip-rule="evenodd" d="M263.102 61.8039C238.331 8.301 196.041 1.01514 158.124 1.01514C120.209 1.01514 88.9407 16.5126 60.5717 39.1418C32.2038 61.7711 16.5397 96.0559 16.5397 96.0559L16.5528 96.0701C11.587 105.776 8.54565 117.708 8.54565 132.22C8.54565 206.227 72.9845 246.015 113.603 246.015C168.039 246.015 226.387 204.272 252.398 161.859C265.482 140.527 285.749 110.721 263.102 61.8039Z" fill="#DD0E1D"/>
<path fill-rule="evenodd" clip-rule="evenodd" d="M80.1733 74.6363C122.02 74.6363 171.688 117.208 171.688 173.224C171.688 210.466 145.997 233.065 111.353 233.065C76.7085 233.065 21.7494 199.13 21.7494 136.011C21.7494 90.6518 56.409 74.6363 80.1733 74.6363Z" fill="#EAEAEA"/>
<path fill-rule="evenodd" clip-rule="evenodd" d="M62.6167 96.701L61.887 152.353L78.48 155.267C78.48 155.267 79.4832 148.435 89.1467 149.711C98.8101 150.986 105.466 161.005 105.466 171.115C105.466 181.225 102.074 187.4 93.4133 186.581C84.3374 185.722 79.4832 176.033 78.6627 170.933C74.1947 170.478 60.793 168.565 60.793 168.565C60.793 168.565 65.0782 196.983 93.2492 201.172C121.42 205.363 124.665 185.616 124.665 176.598C124.665 147.998 105.506 135.087 92.3379 134.318C79.8475 133.589 75.8981 138.067 75.8981 138.067C76.4451 133.878 77.2952 115.464 77.2952 115.464L116.588 119.836L115.13 102.622L62.6167 96.701Z" fill="#DD0E1D"/>
<mask id="mask1" mask-type="alpha" maskUnits="userSpaceOnUse" x="8" y="1" width="266" height="246">
<path fill-rule="evenodd" clip-rule="evenodd" d="M60.5716 39.1417C32.2037 61.771 16.5395 96.0558 16.5395 96.0558L16.5527 96.07C11.5869 105.777 8.54553 117.709 8.54553 132.22C8.54553 206.227 72.9833 246.014 113.603 246.014C168.039 246.014 226.387 204.271 252.399 161.859C265.481 140.528 285.749 110.72 263.102 61.8038C238.331 8.30089 196.041 1.01503 158.124 1.01503C120.209 1.01503 88.9406 16.5114 60.5716 39.1417Z" fill="white"/>
</mask>
<g mask="url(#mask1)">
<path fill-rule="evenodd" clip-rule="evenodd" d="M262.983 67.4193L265.52 61.0636C245.706 18.2654 214.949 2.14605 179.112 0.84758C239.689 10.7861 257.168 55.7495 262.983 67.4193Z" fill="#EABD63"/>
</g>
<mask id="mask2" mask-type="alpha" maskUnits="userSpaceOnUse" x="8" y="1" width="266" height="246">
<path fill-rule="evenodd" clip-rule="evenodd" d="M60.5716 39.1417C32.2037 61.771 16.5395 96.0558 16.5395 96.0558L16.5527 96.07C11.5869 105.777 8.54553 117.709 8.54553 132.22C8.54553 206.227 72.9833 246.014 113.603 246.014C168.039 246.014 226.387 204.271 252.399 161.859C265.481 140.528 285.749 110.72 263.102 61.8038C238.331 8.30089 196.041 1.01503 158.124 1.01503C120.209 1.01503 88.9406 16.5114 60.5716 39.1417Z" fill="white"/>
</mask>
<g mask="url(#mask2)">
<path fill-rule="evenodd" clip-rule="evenodd" d="M156.324 70.4245C118.591 38.5978 55.1563 37.2479 26.7041 76.3058C23.8695 80.1958 21.6738 84.2453 19.5613 88.9288C41.3224 52.1147 94.3014 41.7292 142.077 76.1167C197.088 115.712 222.732 218.518 137.49 243.995C148.029 243.026 150.308 242.347 159.515 237.852C207.731 214.309 226.234 129.391 156.324 70.4245Z" fill="#EABD63"/>
</g>
<mask id="mask3" mask-type="alpha" maskUnits="userSpaceOnUse" x="8" y="1" width="266" height="246">
<path fill-rule="evenodd" clip-rule="evenodd" d="M60.5716 39.1417C32.2037 61.771 16.5395 96.0558 16.5395 96.0558L16.5527 96.07C11.5869 105.777 8.54553 117.709 8.54553 132.22C8.54553 206.227 72.9833 246.014 113.603 246.014C168.039 246.014 226.387 204.271 252.399 161.859C265.481 140.528 285.749 110.72 263.102 61.8038C238.331 8.30089 196.041 1.01503 158.124 1.01503C120.209 1.01503 88.9406 16.5114 60.5716 39.1417Z" fill="white"/>
</mask>
<g mask="url(#mask3)">
<path fill-rule="evenodd" clip-rule="evenodd" d="M189.422 35.6932C189.705 34.2724 187.972 33.081 186.276 32.6001C184.579 32.1181 182.315 32.2591 181.892 33.7073C181.467 35.1555 182.846 36.5338 185.002 37.1688C187.159 37.8049 189.14 37.1141 189.422 35.6932Z" fill="#EABD63"/>
</g>
<mask id="mask4" mask-type="alpha" maskUnits="userSpaceOnUse" x="8" y="1" width="266" height="246">
<path fill-rule="evenodd" clip-rule="evenodd" d="M60.5716 39.1417C32.2037 61.771 16.5395 96.0558 16.5395 96.0558L16.5527 96.07C11.5869 105.777 8.54553 117.709 8.54553 132.22C8.54553 206.227 72.9833 246.014 113.603 246.014C168.039 246.014 226.387 204.271 252.399 161.859C265.481 140.528 285.749 110.72 263.102 61.8038C238.331 8.30089 196.041 1.01503 158.124 1.01503C120.209 1.01503 88.9406 16.5114 60.5716 39.1417Z" fill="white"/>
</mask>
<g mask="url(#mask4)">
<path fill-rule="evenodd" clip-rule="evenodd" d="M205.454 90.3208C205.318 81.2577 210.186 72.2908 212.25 70.0972C210.403 72.8964 212.94 83.9815 214.526 88.9764C216.111 93.9725 213.985 96.5607 211.28 97.4012C208.038 98.4067 205.518 94.6009 205.454 90.3208ZM219.572 94.8709C222.267 97.2678 228.351 97.3017 226.866 88.5381C224.226 87.2189 222.078 85.8745 217.737 77.84C213.394 69.8043 215.95 60.2538 219.803 57.8689C219.793 57.8711 219.786 57.8732 219.777 57.8743C220.653 57.5202 221.479 57.1311 222.255 56.7114C217.418 61.7206 218.529 74.5184 223.095 77.7525C225.981 79.7975 232.005 78.8838 232.57 73.0898C225.357 71.2536 221.256 58.2558 224.973 54.9921L224.967 54.9943C225.594 54.5298 226.18 54.0445 226.723 53.5428L226.718 53.5516C224.169 59.1794 226.189 69.0075 232.9 65.0848C229.098 58.399 231.646 50.4661 232.104 44.2972C232.093 44.3115 232.08 44.3311 232.069 44.3464C233.477 35.4189 227.694 16.7266 194.913 5.39015C193.786 4.95951 192.627 4.58134 191.446 4.25563C188.504 3.33752 185.384 2.47078 182.031 1.67836C183.572 2.23906 185.081 2.77244 186.561 3.2927V3.29161C191.696 5.37375 200.032 12.511 194.587 14.4893C199.254 17.3857 208.006 17.7967 208.006 14.9013C208.006 13.6444 205.963 11.5098 202.787 9.40141C205.196 10.4791 207.527 11.6595 209.793 13.0116C216.453 17.9136 210.362 22.4582 197.939 21.3456C200.337 28.1112 214.359 34.1663 220.125 30.1387C223.249 27.9549 223.295 25.053 220.874 21.7959C222.19 23.1589 223.489 24.6355 224.772 26.2564C227.007 29.7627 224.586 35.0309 221.112 36.1436C215.807 37.8431 208.888 35.7064 206.972 33.8122C206.528 36.7884 211.035 43.3157 220.974 42.7135C227.146 42.3397 230.202 38.7864 229.168 33.9248C229.938 36.0802 230.281 38.1634 230.253 40.1472C229.399 50.2114 209.304 48.3511 206.173 44.036C204.757 48.0746 206.349 52.264 212.475 53.6117C216.721 54.5462 223.335 52.91 227.224 49.02C224.661 52.4826 220.605 55.1768 215.543 56.7354C195.288 62.9742 160.101 44.3355 163.275 30.3146C165.389 20.9729 188.755 21.1969 192.723 34.2789C195.464 43.3212 179.542 42.0665 178.246 35.3752C172.412 42.954 185.457 52.1187 196.911 46.8669C204.428 43.4196 206.875 34.1882 190.994 24.2595C175.114 14.3286 156.795 17.06 152.799 25.6957C150.086 31.5552 153.603 38.3077 165.435 46.0362C162.796 45.1421 158.652 44.0929 155.036 44.7771C151.004 45.5389 152.284 50.1578 156.405 50.8311C158.36 47.2625 168.577 48.7391 173.63 50.6748C173.626 50.6694 173.621 50.6672 173.616 50.6628C174.234 50.9678 174.861 51.2716 175.505 51.57C170.847 50.6694 164.308 50.9896 161.975 52.9788C157.981 56.3857 162.424 61.5195 165.983 62.6474C165.725 61.3544 172.817 52.6357 183.823 55.026C184.996 55.4621 186.189 55.8928 187.429 56.3136C188.131 56.5518 188.816 56.7682 189.499 56.9814C180.952 55.9824 172.389 58.7509 171.688 64.4049C171.335 67.2434 173.314 72.4122 178.201 73.1937C176.551 69.4644 190.235 57.341 198.253 59.1772C198.236 59.1706 198.218 59.1641 198.201 59.1564C199.903 59.4679 201.534 59.6942 203.091 59.8417C189.319 60.4101 181.143 71.3946 182.713 78.0542C183.983 83.4393 189.246 85.7904 193.253 84.9116C188.568 74.009 201.728 61.4637 207.946 60.0603L207.928 60.0592C210.396 60.0341 212.652 59.7936 214.704 59.3816C203.136 64.7175 200.251 80.8369 199.336 85.5237C198.298 90.8356 195.282 95.025 191.982 93.8118C193.208 100.701 199.524 103.138 203.506 98.8078C203.638 101.34 205.643 108.103 213.732 112.733C219.708 107.021 220.963 102.622 219.572 94.8709Z" fill="#EABD63"/>
</g>
<mask id="mask5" mask-type="alpha" maskUnits="userSpaceOnUse" x="8" y="1" width="266" height="246">
<path fill-rule="evenodd" clip-rule="evenodd" d="M60.5716 39.1417C32.2037 61.771 16.5395 96.0558 16.5395 96.0558L16.5527 96.07C11.5869 105.777 8.54553 117.709 8.54553 132.22C8.54553 206.227 72.9833 246.014 113.603 246.014C168.039 246.014 226.387 204.271 252.399 161.859C265.481 140.528 285.749 110.72 263.102 61.8038C238.331 8.30089 196.041 1.01503 158.124 1.01503C120.209 1.01503 88.9406 16.5114 60.5716 39.1417Z" fill="white"/>
</mask>
<g mask="url(#mask5)">
<path fill-rule="evenodd" clip-rule="evenodd" d="M249.231 72.4194C253.05 67.9283 255.177 63.8482 254.194 58.1001C253.641 54.8726 250.152 51.1116 246.534 50.8711C242.886 50.6285 240.238 53.5949 242.991 56.3874C244.634 54.5829 250.319 57.7045 249.129 64.4275C248.589 67.4878 246.758 69.9525 244.349 72.5549C246.848 68.4573 246.876 64.3783 245.288 62.2502C244.101 60.661 241.052 60.0577 239.062 63.4733C241.843 64.9805 244.712 69.3678 238.752 78.3915L238.756 78.3882C235.515 81.9273 232.155 86.2828 229.68 92.5052C225.515 102.988 222.308 116.516 221.415 127.855C218.462 117.222 210.244 121.793 210.244 128.438C213.557 125.881 219.677 136.589 222.175 143.373C222.175 143.373 222.175 143.36 222.176 143.353C222.454 144.41 222.787 145.377 223.189 146.221C223.18 146.014 223.18 145.801 223.174 145.593C224.196 127.831 241.775 110.346 252.424 119.597C254.289 113.346 251.388 101.797 241.605 103.927C229.918 106.471 225.238 116.639 223.706 128.959C224.335 122.043 225.426 115.225 226.837 109.077C230.247 97.6434 247.243 90.3094 251.517 102.514C255.339 90.6253 245.132 84.3373 237.708 87.1627C235.889 87.8556 234.458 88.9377 233.289 90.3181C233.879 89.1716 234.478 88.0928 235.09 87.0862C239.369 81.9797 247.543 81.4802 250.908 88.4185C255.268 84.6904 252.436 78.7565 247.982 78.3171C245.354 78.0581 242.853 78.6352 240.691 79.9533C243.715 77.0777 246.932 75.3715 250.308 74.5256C261.448 71.7363 263.607 84.6368 263.41 88.4185C263.41 88.4185 266.307 88.2874 266.353 87.5649C263.721 83.9045 262.038 69.0858 249.231 72.4194Z" fill="#EABD63"/>
</g>
<mask id="mask6" mask-type="alpha" maskUnits="userSpaceOnUse" x="8" y="1" width="266" height="246">
<path fill-rule="evenodd" clip-rule="evenodd" d="M60.5716 39.1417C32.2037 61.771 16.5395 96.0558 16.5395 96.0558L16.5527 96.07C11.5869 105.777 8.54553 117.709 8.54553 132.22C8.54553 206.227 72.9833 246.014 113.603 246.014C168.039 246.014 226.387 204.271 252.399 161.859C265.481 140.528 285.749 110.72 263.102 61.8038C238.331 8.30089 196.041 1.01503 158.124 1.01503C120.209 1.01503 88.9406 16.5114 60.5716 39.1417Z" fill="white"/>
</mask>
<g mask="url(#mask6)">
<path fill-rule="evenodd" clip-rule="evenodd" d="M126.343 21.929C123.824 23.3357 120.264 23.3215 118.001 27.6552C115.739 31.9878 116.068 35.6613 114.607 36.5095C119.698 34.7203 134.359 32.6469 135.208 23.5106C137.942 23.0876 139.639 22.1454 139.733 21.2022C141.713 20.5912 159.027 17.9516 164.031 16.6532C169.769 15.1623 175.058 11.0833 172.378 7.43054C172.369 7.41742 172.357 7.40759 172.346 7.39447C168.85 0.993934 145.238 0.288957 139.404 1.30216C147.577 0.815777 153.045 4.73086 150.625 7.60105C146.691 12.2637 127.519 10.586 128.579 6.98351C124.185 7.73767 122.654 11.1445 128.579 13.7065C133.815 15.9701 146.758 17.3079 157.296 16.3898C149.492 17.8096 139.558 19.3889 138.555 19.4611C136.716 18.4238 135.16 18.755 132.473 19.178C131.06 17.5297 117.954 13.2441 105.178 19.6021C111.637 20.072 113.239 20.6852 115.173 21.7684C117.105 22.8515 121.19 23.1335 126.343 21.929Z" fill="#EABD63"/>
</g>
<mask id="mask7" mask-type="alpha" maskUnits="userSpaceOnUse" x="8" y="1" width="266" height="246">
<path fill-rule="evenodd" clip-rule="evenodd" d="M60.5716 39.1417C32.2037 61.771 16.5395 96.0558 16.5395 96.0558L16.5527 96.07C11.5869 105.777 8.54553 117.709 8.54553 132.22C8.54553 206.227 72.9833 246.014 113.603 246.014C168.039 246.014 226.387 204.271 252.399 161.859C265.481 140.528 285.749 110.72 263.102 61.8038C238.331 8.30089 196.041 1.01503 158.124 1.01503C120.209 1.01503 88.9406 16.5114 60.5716 39.1417Z" fill="white"/>
</mask>
<g mask="url(#mask7)">
<path fill-rule="evenodd" clip-rule="evenodd" d="M95.5035 28.5627C94.3143 28.9452 91.2117 30.4721 92.1886 32.128C93.1667 33.7839 95.8295 33.5008 98.7626 32.5237C96.4673 34.3916 97.1336 36.265 100.603 37.0956C103.619 37.817 109.103 36.7732 111.267 34.5053C113.902 31.7466 114.154 30.5836 114.922 27.896C112.075 29.8393 108.035 28.4589 107.554 27.0161C106.967 25.2575 109.66 23.5459 113.476 23.0803C112.753 22.783 110.743 22.1414 107.502 21.8135C102.331 21.29 94.9805 22.6485 92.0901 26.8937C91.4392 27.8523 93.5485 28.6053 95.5035 28.5627Z" fill="#EABD63"/>
</g>
<mask id="mask8" mask-type="alpha" maskUnits="userSpaceOnUse" x="8" y="1" width="266" height="246">
<path fill-rule="evenodd" clip-rule="evenodd" d="M60.5716 39.1417C32.2037 61.771 16.5395 96.0558 16.5395 96.0558L16.5527 96.07C11.5869 105.777 8.54553 117.709 8.54553 132.22C8.54553 206.227 72.9833 246.014 113.603 246.014C168.039 246.014 226.387 204.271 252.399 161.859C265.481 140.528 285.749 110.72 263.102 61.8038C238.331 8.30089 196.041 1.01503 158.124 1.01503C120.209 1.01503 88.9406 16.5114 60.5716 39.1417Z" fill="white"/>
</mask>
<g mask="url(#mask8)">
<path fill-rule="evenodd" clip-rule="evenodd" d="M139.106 30.8645C136.2 33.1073 129.601 36.277 133.311 40.497C135.444 42.9246 141.819 42.0185 145.326 38.522C148.34 35.513 147.476 28.4916 140.825 25.0695C141.904 27.2008 141.701 28.8622 139.106 30.8645Z" fill="#EABD63"/>
</g>
<mask id="mask9" mask-type="alpha" maskUnits="userSpaceOnUse" x="8" y="1" width="266" height="246">
<path fill-rule="evenodd" clip-rule="evenodd" d="M60.5716 39.1417C32.2037 61.771 16.5395 96.0558 16.5395 96.0558L16.5527 96.07C11.5869 105.777 8.54553 117.709 8.54553 132.22C8.54553 206.227 72.9833 246.014 113.603 246.014C168.039 246.014 226.387 204.271 252.399 161.859C265.481 140.528 285.749 110.72 263.102 61.8038C238.331 8.30089 196.041 1.01503 158.124 1.01503C120.209 1.01503 88.9406 16.5114 60.5716 39.1417Z" fill="white"/>
</mask>
<g mask="url(#mask9)">
<path fill-rule="evenodd" clip-rule="evenodd" d="M71.9334 41.8312C78.2689 40.0825 91.2505 30.3538 85.5868 25.4725C83.1351 23.3597 75.7406 23.7663 63.6025 32.9726C68.985 29.4794 77.6792 25.1348 77.9888 29.0804C78.189 31.6424 72.604 39.9185 62.3662 40.6989C62.6233 42.1952 64.8639 43.7833 71.9334 41.8312Z" fill="#EABD63"/>
</g>
<mask id="mask10" mask-type="alpha" maskUnits="userSpaceOnUse" x="8" y="1" width="266" height="246">
<path fill-rule="evenodd" clip-rule="evenodd" d="M60.5716 39.1417C32.2037 61.771 16.5395 96.0558 16.5395 96.0558L16.5527 96.07C11.5869 105.777 8.54553 117.709 8.54553 132.22C8.54553 206.227 72.9833 246.014 113.603 246.014C168.039 246.014 226.387 204.271 252.399 161.859C265.481 140.528 285.749 110.72 263.102 61.8038C238.331 8.30089 196.041 1.01503 158.124 1.01503C120.209 1.01503 88.9406 16.5114 60.5716 39.1417Z" fill="white"/>
</mask>
<g mask="url(#mask10)">
<path fill-rule="evenodd" clip-rule="evenodd" d="M235.018 133.568C230.484 137.343 229.649 144.489 235.018 144.762C240.635 145.046 245.1 142.99 249.838 138.768C248.442 140.141 246.928 141.682 245.353 143.399C235.61 150.477 218.502 157.953 214.934 156.06C212.095 161.392 214.95 165.511 217.455 166.281C221.493 167.524 228.612 163.049 235.003 156.949C234.374 157.973 233.765 159.035 233.172 160.118C227.539 166.499 217.364 177.216 214.076 176.993C211.77 180.484 209.919 186.621 214.775 185.258C217.93 184.375 222.895 178.522 228.066 170.589C222.072 183.401 215.084 199.544 217.805 204.004C219.792 207.26 227.264 202.711 236.692 191.766C246.12 180.818 252.695 163.855 248.854 160.325C245.605 157.338 239.156 163.014 235.289 170.36C232.081 176.451 232.449 180.858 235.183 181.894C234.995 173.229 241.783 168.52 243.386 168.802C244.988 169.085 245.837 171.156 242.726 178.381C239.615 185.605 229.149 198.19 225.661 195.184C222.173 192.178 228.018 176.714 233.581 164.564C239.143 152.414 247.704 142.033 252.663 137.323C252.695 136.814 252.672 136.361 252.695 136.014C252.752 134.077 252.719 135.156 252.823 132.078C249.228 134.823 240.025 137.249 235.018 133.568Z" fill="#EABD63"/>
</g>
<mask id="mask11" mask-type="alpha" maskUnits="userSpaceOnUse" x="8" y="1" width="266" height="246">
<path fill-rule="evenodd" clip-rule="evenodd" d="M60.5716 39.1417C32.2037 61.771 16.5395 96.0558 16.5395 96.0558L16.5527 96.07C11.5869 105.777 8.54553 117.709 8.54553 132.22C8.54553 206.227 72.9833 246.014 113.603 246.014C168.039 246.014 226.387 204.271 252.399 161.859C265.481 140.528 285.749 110.72 263.102 61.8038C238.331 8.30089 196.041 1.01503 158.124 1.01503C120.209 1.01503 88.9406 16.5114 60.5716 39.1417Z" fill="white"/>
</mask>
<g mask="url(#mask11)">
<path fill-rule="evenodd" clip-rule="evenodd" d="M169.255 236.418C232.273 196.128 197.009 132.078 259.859 53.8953C276.63 144.708 269.426 234.169 169.255 236.418Z" fill="#7C3813"/>
</g>
<mask id="mask12" mask-type="alpha" maskUnits="userSpaceOnUse" x="19" y="1" width="248" height="244">
<path fill-rule="evenodd" clip-rule="evenodd" d="M139.456 1.54781C147.629 1.06094 153.096 4.97994 150.676 7.853C146.744 12.5214 127.574 10.842 128.634 7.23594C124.239 7.98976 122.709 11.4011 128.634 13.9645C133.868 16.2315 146.809 17.5706 157.347 16.6516C149.543 18.0717 139.61 19.6538 138.607 19.7249C136.768 18.6877 135.214 19.0181 132.527 19.4426C131.113 17.7927 118.009 13.5028 105.236 19.8671C111.693 20.3376 113.296 20.9513 115.228 22.0345C117.16 23.1198 121.246 23.4021 126.397 22.1953C123.878 23.6045 120.318 23.5903 118.056 27.9283C115.794 32.2652 116.123 35.9425 114.663 36.7904C119.753 34.9994 134.412 32.925 135.261 23.7795C137.995 23.3561 139.691 22.4119 139.785 21.4688C141.765 20.8573 159.078 18.215 164.081 16.9153C169.819 15.4219 175.106 11.3387 172.427 7.68232C172.418 7.67029 172.405 7.66044 172.395 7.64622C169.712 2.72832 155.175 1.17035 145.925 1.17035C143.126 1.17035 140.811 1.31258 139.456 1.54781ZM186.608 3.54122V3.54013C191.743 5.62326 200.079 12.7687 194.634 14.749C199.3 17.6472 208.052 18.0608 208.052 15.1615C208.052 13.9033 206.008 11.7665 202.832 9.65605C205.242 10.7348 207.572 11.9164 209.838 13.2687C216.497 18.1778 210.407 22.7259 197.985 21.6122C200.383 28.3845 214.403 34.4458 220.168 30.4141C223.292 28.2292 223.338 25.3233 220.917 22.0629C222.233 23.4273 223.533 24.9043 224.816 26.529C227.05 30.0377 224.629 35.3112 221.154 36.4249C215.852 38.1273 208.934 35.9873 207.017 34.0913C206.573 37.0705 211.079 43.6043 221.016 43.0015C227.188 42.6273 230.244 39.0704 229.21 34.204C229.98 36.3615 230.324 38.4468 230.296 40.4326C229.442 50.5058 209.348 48.6437 206.218 44.3253C204.802 48.3679 206.395 52.5616 212.52 53.9106C216.765 54.846 223.378 53.2082 227.266 49.3143C224.704 52.7804 220.649 55.4773 215.587 57.0374C195.336 63.2825 160.153 44.6262 163.325 30.5902C165.439 21.2391 188.803 21.4634 192.77 34.5584C195.511 43.6098 179.591 42.3538 178.294 35.6558C172.461 43.2422 185.505 52.416 196.957 47.159C204.473 43.7093 206.92 34.4665 191.041 24.529C175.162 14.5882 156.846 17.3212 152.85 25.9666C150.138 31.832 153.655 38.5912 165.484 46.3275C162.846 45.4325 158.703 44.3822 155.087 45.0671C151.056 45.8286 152.336 50.4533 156.455 51.1272C158.41 47.555 168.627 49.0331 173.679 50.9697C173.674 50.9653 173.67 50.9631 173.664 50.9587C174.282 51.264 174.91 51.5681 175.554 51.8668C170.896 50.9653 164.356 51.2848 162.025 53.2771C158.033 56.6873 162.474 61.8273 166.032 62.9542C165.774 61.661 172.867 52.9335 183.87 55.3252C185.043 55.7628 186.237 56.1939 187.476 56.6151C188.178 56.8536 188.863 57.0703 189.546 57.2836C181.001 56.2836 172.438 59.0549 171.737 64.7135C171.385 67.5559 173.362 72.7299 178.249 73.511C176.599 69.7791 190.282 57.6447 198.3 59.4816C198.283 59.4751 198.264 59.4674 198.246 59.4608C199.949 59.7726 201.58 59.9991 203.136 60.1457C189.367 60.7157 181.191 71.7113 182.76 78.3775C184.03 83.7681 189.293 86.1214 193.3 85.2418C188.615 74.3272 201.773 61.7704 207.991 60.3656L207.972 60.3635C210.441 60.3394 212.696 60.0987 214.748 59.6862C203.181 65.0275 200.296 81.163 199.382 85.8545C198.345 91.1717 195.329 95.3653 192.029 94.1509C193.254 101.047 199.571 103.487 203.551 99.1519C203.683 101.687 205.688 108.456 213.778 113.092C219.752 107.373 221.006 102.97 219.617 95.211C222.31 97.6115 228.393 97.6432 226.909 88.8719C224.269 87.5514 222.121 86.2057 217.78 78.1631C213.438 70.1194 215.994 60.5593 219.846 58.172C219.838 58.1742 219.829 58.1764 219.82 58.1775C220.696 57.8219 221.522 57.4335 222.298 57.0145C217.461 62.0265 218.572 74.8382 223.138 78.0755C226.024 80.1226 232.047 79.2079 232.612 73.4093C225.4 71.5701 221.3 58.5593 225.016 55.2924L225.01 55.2946C225.636 54.8285 226.224 54.3438 226.765 53.8416L226.762 53.8515C224.212 59.4838 226.232 69.3218 232.942 65.394C229.14 58.7026 231.688 50.7618 232.146 44.5868C232.135 44.601 232.122 44.6207 232.111 44.6371C233.519 35.6985 227.738 16.9886 194.959 5.64077C193.834 5.21079 192.673 4.83115 191.493 4.50511C188.551 3.58608 185.433 2.71847 182.079 1.92527C183.62 2.48544 185.13 3.02044 186.608 3.54122ZM205.499 90.6564C205.363 81.5843 210.23 72.6095 212.294 70.4126C210.448 73.2134 212.984 84.3107 214.57 89.3107C216.155 94.3117 214.03 96.9025 211.325 97.7428C210.967 97.8544 210.619 97.9069 210.283 97.9069C207.558 97.9069 205.557 94.4693 205.499 90.6564ZM92.1484 27.1657C91.4964 28.1241 93.6065 28.8791 95.5602 28.8364C94.3712 29.2182 91.27 30.7478 92.2468 32.4064C93.2248 34.0628 95.8873 33.7784 98.8189 32.8013C96.525 34.6711 97.1912 36.5464 100.66 37.3779C103.676 38.1 109.158 37.0551 111.323 34.786C113.957 32.0224 114.21 30.8593 114.977 28.169C112.131 30.1143 108.092 28.7335 107.609 27.2883C107.022 25.5268 109.716 23.8146 113.531 23.3485C112.808 23.052 110.799 22.4087 107.558 22.0793C106.865 22.0093 106.133 21.9732 105.377 21.9732C100.498 21.9732 94.6501 23.4863 92.1484 27.1657ZM63.6633 33.251C69.0464 29.7532 77.7396 25.4053 78.048 29.355C78.2493 31.9195 72.6639 40.205 62.4272 40.984C62.6843 42.4818 64.9246 44.0715 71.9933 42.1174C78.3292 40.368 91.3082 30.6285 85.6462 25.7423C84.9002 25.1001 83.698 24.6898 82.0451 24.6898C78.2602 24.6898 72.1104 26.8364 63.6633 33.251ZM139.159 31.1405C136.253 33.3856 129.656 36.5584 133.364 40.7838C135.498 43.2126 141.871 42.3045 145.377 38.8057C148.392 35.7948 147.529 28.7642 140.877 25.3386C141.957 27.4743 141.753 29.1373 139.159 31.1405ZM181.94 33.9862C181.515 35.4359 182.895 36.8155 185.051 37.4512C187.207 38.0879 189.187 37.3965 189.469 35.9742C189.752 34.5519 188.02 33.3604 186.323 32.8779C185.767 32.7193 185.15 32.6285 184.557 32.6285C183.341 32.6285 182.224 33.0114 181.94 33.9862ZM26.7695 76.6281C23.9352 80.5219 21.7408 84.5744 19.6274 89.2625C41.3861 52.4128 94.358 42.0168 142.13 76.4377C197.134 116.073 222.775 218.982 137.543 244.484C148.081 243.514 150.359 242.834 159.565 238.334C207.776 214.768 226.276 129.765 156.374 70.7408C138.116 55.3219 113.834 47.0496 90.4145 47.0485C65.442 47.0474 41.4507 56.4521 26.7695 76.6281ZM243.033 56.6895C244.676 54.8832 250.358 58.0079 249.169 64.7365C248.629 67.7999 246.799 70.2682 244.389 72.8721C246.889 68.7704 246.916 64.6873 245.329 62.5582C244.142 60.9663 241.093 60.3634 239.103 63.7814C241.885 65.2912 244.752 69.6828 238.794 78.7156L238.797 78.7112C235.557 82.2538 232.197 86.6138 229.723 92.8435C225.558 103.337 222.353 116.877 221.459 128.227C218.505 117.585 210.288 122.16 210.288 128.811C213.601 126.252 219.721 136.97 222.218 143.762C222.218 143.762 222.218 143.748 222.219 143.742C222.497 144.799 222.83 145.769 223.232 146.613C223.224 146.405 223.224 146.192 223.218 145.983C224.24 128.204 241.817 110.701 252.463 119.961C254.329 113.705 251.427 102.143 241.646 104.276C229.962 106.823 225.282 117.001 223.749 129.333C224.377 122.411 225.47 115.585 226.88 109.431C230.289 97.9867 247.284 90.6443 251.556 102.861C255.378 90.9605 245.173 84.6674 237.749 87.4956C235.93 88.1892 234.499 89.2713 233.332 90.6531C233.922 89.5054 234.521 88.4256 235.133 87.419C239.41 82.3074 247.584 81.8064 250.948 88.7516C255.307 85.0197 252.476 79.0799 248.023 78.6401C245.394 78.3819 242.895 78.9596 240.733 80.2779C243.757 77.4005 246.973 75.6926 250.348 74.8458C261.488 72.0526 263.645 84.9661 263.449 88.7516C263.449 88.7516 266.346 88.6203 266.392 87.8971C263.76 84.2341 262.076 69.4006 249.271 72.7375C253.09 68.2408 255.216 64.1577 254.233 58.4039C253.682 55.1731 250.193 51.4084 246.575 51.1666C246.435 51.1578 246.295 51.1535 246.157 51.1535C242.731 51.1524 240.387 54.0025 243.033 56.6895ZM235.059 133.947C230.526 137.726 229.692 144.878 235.059 145.151C240.676 145.437 245.142 143.378 249.879 139.152C248.484 140.526 246.969 142.068 245.393 143.787C235.652 150.872 218.546 158.356 214.979 156.461C212.139 161.798 214.994 165.922 217.5 166.693C221.537 167.937 228.655 163.457 235.045 157.352C234.415 158.376 233.808 159.44 233.214 160.523C227.581 166.912 217.408 177.638 214.121 177.415C211.814 180.91 209.963 187.053 214.819 185.689C217.974 184.804 222.938 178.945 228.11 171.005C222.115 183.831 215.128 199.988 217.849 204.453C219.834 207.713 227.306 203.159 236.734 192.202C246.16 181.244 252.736 164.265 248.895 160.73C245.646 157.74 239.197 163.422 235.331 170.775C232.123 176.872 232.492 181.284 235.224 182.322C235.036 173.647 241.824 168.934 243.426 169.216C245.029 169.499 245.878 171.572 242.767 178.805C239.656 186.035 229.192 198.633 225.704 195.624C222.216 192.614 228.061 177.136 233.623 164.973C239.184 152.811 247.744 142.42 252.704 137.705C252.736 137.196 252.711 136.743 252.736 136.394C252.792 134.456 252.758 135.536 252.864 132.455C249.268 135.204 240.065 137.631 235.059 133.947Z" fill="white"/>
</mask>
<g mask="url(#mask12)">
<path fill-rule="evenodd" clip-rule="evenodd" d="M173.144 133.93C163.577 104.801 153.969 88.1747 134.186 80.7481C170.451 54.9616 215.049 46.5985 222.359 70.4123C229.671 94.2261 197.629 107.805 173.144 133.93Z" fill="#EAEAEA"/>
</g>
</g>
<g filter="url(#filter1_d)">
<mask id="mask13" mask-type="alpha" maskUnits="userSpaceOnUse" x="247" y="4" width="252" height="293">
<path fill-rule="evenodd" clip-rule="evenodd" d="M247.742 4.36639H498.495V296.078H247.742V4.36639Z" fill="white"/>
</mask>
<g mask="url(#mask13)">
<path fill-rule="evenodd" clip-rule="evenodd" d="M467.625 264.467C473.896 257.578 498.495 204.294 498.495 143.318C498.495 84.5519 481.413 42.5034 476.245 30.4459C468.341 12.0056 425.702 4.36639 373.118 4.36639C320.535 4.36639 277.897 12.0056 269.992 30.4459C264.824 42.5034 247.742 84.5519 247.742 143.318C247.742 204.294 272.341 257.578 278.612 264.467C284.882 271.355 305.206 296.079 373.118 296.079C441.031 296.079 461.355 271.355 467.625 264.467Z" fill="#DD0E1D"/>
</g>
<path fill-rule="evenodd" clip-rule="evenodd" d="M460.815 28.971C460.815 39.1558 420.656 45.118 372.007 45.118C323.361 45.118 285.422 36.8615 285.422 26.6766C285.422 16.4928 323.361 8.23517 372.007 8.23517C420.656 8.23517 460.815 18.7861 460.815 28.971Z" fill="#EAEAEA"/>
<path fill-rule="evenodd" clip-rule="evenodd" d="M306.956 23.2985C306.862 23.4864 321.952 24.7428 321.952 24.7428C321.952 24.7428 318.194 27.2525 323.938 28.2816C329.783 29.3294 342.342 29.6353 345.815 26.7914C349.753 23.5672 332.873 22.6702 332.179 22.6702C333.125 22.1655 336.213 20.0809 336.213 20.0809C336.213 20.0809 342.328 20.7757 345.102 20.649C347.876 20.5223 354.117 21.0915 356.134 18.8801C358.151 16.6688 350.902 16.0373 348.38 15.9739C345.859 15.9116 337.222 15.6582 334.448 17.9329C330.918 17.6171 320.958 16.7321 320.958 16.7321C320.958 16.7321 328.712 12.4373 349.641 13.1311C370.57 13.827 373.722 17.6171 372.965 18.8801C372.21 20.1442 369.94 22.3545 357.016 22.8603C361.619 23.9343 364.266 25.6398 363.383 26.8406C362.501 28.0402 358.782 33.7893 326.758 32.2105C318.499 31.3255 296.862 29.9904 306.956 23.2985Z" fill="#DD0E1D"/>
<path fill-rule="evenodd" clip-rule="evenodd" d="M416.715 28.9251C409.213 34.7364 403.288 36.2529 395.661 35.1789C388.032 34.1049 383.242 33.0943 393.517 26.0822C396.794 23.4917 403.666 20.5866 412.365 21.4071C421.064 22.2287 424.217 23.1126 416.715 28.9251ZM415.707 18.6276C410.114 18.2562 390.743 15.9115 376.496 25.1972C362.249 34.484 376.433 37.0111 393.202 38.6533C409.97 40.2965 426.171 38.3375 435.438 29.3064C444.705 20.2752 420.435 18.7533 415.707 18.6276Z" fill="#DD0E1D"/>
<mask id="mask14" mask-type="alpha" maskUnits="userSpaceOnUse" x="247" y="4" width="252" height="293">
<path fill-rule="evenodd" clip-rule="evenodd" d="M269.992 30.4461C264.825 42.5037 247.742 84.5521 247.742 143.317C247.742 204.293 272.342 257.578 278.612 264.467C284.883 271.354 305.206 296.078 373.119 296.078C441.032 296.078 461.355 271.354 467.625 264.467C473.896 257.578 498.495 204.293 498.495 143.317C498.495 84.5521 481.412 42.5037 476.245 30.4461C468.342 12.0058 425.702 4.36552 373.119 4.36552C320.535 4.36552 277.896 12.0058 269.992 30.4461Z" fill="white"/>
</mask>
<g mask="url(#mask14)">
<path fill-rule="evenodd" clip-rule="evenodd" d="M373.119 77.843C453.291 77.843 487.723 61.8315 485.613 48.0641C483.786 42.4942 480.57 34.5403 480.57 34.5403C485.435 47.544 453.085 63.1546 373.119 63.1546C293.152 63.1546 260.802 47.544 265.667 34.5403C265.667 34.5403 262.451 42.4942 260.624 48.0641C258.514 61.8315 292.947 77.843 373.119 77.843Z" fill="#EABD63"/>
</g>
<mask id="mask15" mask-type="alpha" maskUnits="userSpaceOnUse" x="247" y="4" width="252" height="293">
<path fill-rule="evenodd" clip-rule="evenodd" d="M269.992 30.4461C264.825 42.5037 247.742 84.5521 247.742 143.317C247.742 204.293 272.342 257.578 278.612 264.467C284.883 271.354 305.206 296.078 373.119 296.078C441.032 296.078 461.355 271.354 467.625 264.467C473.896 257.578 498.495 204.293 498.495 143.317C498.495 84.5521 481.412 42.5037 476.245 30.4461C468.342 12.0058 425.702 4.36552 373.119 4.36552C320.535 4.36552 277.896 12.0058 269.992 30.4461Z" fill="white"/>
</mask>
<g mask="url(#mask15)">
<path fill-rule="evenodd" clip-rule="evenodd" d="M497.7 106.192C496.117 100.912 493.385 98.9669 491.881 102.398C491.407 103.481 491.082 105.429 490.867 107.935C490.016 95.5548 488.394 83.9747 489.819 82.1228C487.657 77.7482 481.822 80.6402 481.512 91.4358C481.226 101.398 482.534 103.325 484.55 109.329C479.808 98.9352 475.55 84.745 478.597 81.358C474.962 78.1011 468.574 86.1139 471.123 94.7616C472.419 99.157 474.371 105.506 478.061 110.026C464.624 110.085 452.988 118.312 447.315 137.951C441.643 157.59 451.767 173.97 460.977 174.343C470.188 174.715 480.691 164.817 483.229 142.789C484.363 132.938 481.488 127.648 478.137 126.683C474.754 125.71 469.078 129.085 469.906 137.97C472.004 134.51 479.5 134.928 478.647 146.513C478.024 154.963 473.289 161.573 467.557 162.038C463.475 162.369 457.783 158.428 456.561 147.056C454.934 131.933 461.856 118.141 475.827 115.972C487.894 114.098 490.093 134.19 491.05 141.598C491.126 143.786 491.186 145.661 491.214 147.056C491.391 156.249 490.98 159.505 490.774 162.76C490.709 163.795 490.221 171.961 487.699 182.941C489.258 172.855 487.857 166.001 485.481 163.891C481.098 159.998 477.478 166.872 478.055 170.127C483.046 165.55 485.837 189.432 478.448 209.509C478.229 209.955 478.003 210.401 477.775 210.845C480.033 204.231 480.371 198.722 480.595 195.814C481.362 185.82 480.09 179.966 475.531 177.961C472.035 176.424 467.877 178.382 466.95 181.667C474.501 184.132 472.713 220.234 450.404 241.529C450.25 241.622 450.095 241.715 449.939 241.807C452.461 239.21 454.749 235.823 456.599 231.37C463.908 213.787 452.605 213.905 449.223 214.362C449.219 227.52 437.884 242.64 427.252 248.549C435.169 243.359 440.703 227.218 430.752 227.171C431.664 239.449 416.543 246.27 403.117 247.334C413.195 245.952 421.769 239.277 416.648 232.669C409.184 242.02 381.502 238.644 367.158 222.372C360.598 212.008 356.889 201.239 354.985 194.582C361.837 206.538 371.687 225.665 399.697 225.665C430.74 225.665 442.599 198.182 451.65 196.484C454.713 195.908 455.232 199.777 453.824 201.453C460.815 200.369 464.393 194.872 463.495 188.616C462.936 184.721 456.752 180.454 449.453 185.817C447.627 187.158 444.002 191.258 442.452 194.338C447.615 179.258 446.28 159.427 430.036 139.83C431.313 137.279 431.99 135.101 428.946 129.74C431.144 125.217 440.797 100.928 419.641 89.0289C418.626 95.5624 417.316 102.742 416.3 107.767C415.286 112.793 413.087 124.521 420.192 131.056C417.418 127.925 410.21 124.689 401.708 129.237C391.215 134.85 385.467 135.604 382.76 136.274C387.496 142.975 402.697 155.707 419.458 140.798C421.501 143.478 423.87 145.32 426.238 143.311C434.927 154.109 438.971 164.089 440.177 173.346C436.66 161.516 426.499 153.666 412.536 156.004C400.239 158.063 395.929 167.698 401.096 177.078C407.737 168.654 423.138 168.727 425.926 183.19C428.618 197.156 422.444 212.807 406.419 216.876C409.254 214.86 414.263 209.474 415.691 205.637C422.476 187.402 404.622 176.462 395.317 188.749C402.076 187.908 405.596 200.555 398.572 209.183C391.547 217.809 383.839 216.643 377.283 213.739C368.795 208.952 362.52 199.427 356.398 187.993C360.82 193.616 366.384 198.222 373.976 201.393C388.564 207.483 398.515 192.062 380.232 180.233C370.787 190.563 349.654 172.702 343.579 163.126C342.517 161.159 341.423 159.192 340.294 157.236C344.926 162.573 351.797 166.318 355.331 166.694C363.24 167.533 370.159 163.43 366.77 153.545C347.576 154.443 343.239 145.092 327.477 134.39C348.05 144.043 370.653 137.968 371.752 114.921C372.478 99.676 361.386 89.2387 349.606 91.4129C338.124 93.5303 332.765 104.698 335.95 113.837C344.039 102.148 358.644 108.713 358.084 119.687C357.277 135.501 342.395 135.099 332.788 131.884C325.585 129.472 314.321 122.627 302.041 114.273C309.364 117.262 316.045 117.025 320.881 115.403C335.965 110.347 333.84 91.0534 320.044 89.4375C319.687 105.597 298.348 108.946 287.769 104.256C286.506 103.347 285.246 102.435 283.989 101.52C295.074 105.157 309.884 102.659 309.52 91.5003C309.315 85.1962 302.308 86.0265 299.262 87.6414C298.726 98.7735 281.923 97.3488 275.19 95.0588C273.792 94.023 272.41 92.9971 271.048 91.981C276.382 94.5212 284.392 95.3625 287.26 91.0534C290.915 85.5567 288.333 82.6145 280.988 82.9739C282.422 88.7197 267.412 87.8194 262.362 85.477C258.185 82.3402 254.343 79.446 251.009 76.9594C250.813 77.899 250.669 78.6168 250.669 78.6168C250.669 78.6168 250.842 78.7457 251.142 78.9719C251.441 79.3728 251.933 79.682 252.553 80.0371C253.657 80.8718 255.238 82.0693 257.206 83.5672C259.68 86.3532 262.321 91.3681 264.029 101.294C265.615 110.522 264.592 118.145 262.161 117.453C261.357 120.192 264.415 124.606 266.607 124.695C273.334 125.37 273.861 116.701 271.235 105.021C269.66 98.0131 266.424 91.7691 260.575 86.1358C262.626 87.7025 264.955 89.4878 267.519 91.4599C272.207 96.3404 275.889 101.271 278.199 120.083C279.736 132.592 273.802 133.488 272.393 132.293C271.626 136.692 274.701 141.649 278.629 142.097C282.557 142.546 290.647 140.592 288.695 124.025C287.374 112.815 284.24 105.94 279.066 100.389C280.999 101.892 283.004 103.455 285.064 105.067C303.913 126.621 295.665 148.971 289.122 149.019C290.229 162.089 310.244 163.509 308.999 143.244C308.207 130.351 304.764 122.051 296.827 114.316C299.336 116.299 301.898 118.335 304.496 120.406C313.191 127.12 319.171 168.653 302.874 166.151C303.27 171.113 308.308 177.809 315.778 177.103C330.135 175.748 330.598 160.588 327.341 150.911C325.248 144.692 322.649 137.806 317.047 131.144C321.283 135.219 325.044 139.407 328.369 143.659C334.085 152.291 339.231 165.114 332.109 182.205C330.208 182.205 328.017 180.757 325.386 188.862C321.587 187.27 303.028 173.812 296.892 200.294C302.443 197.255 306.39 196.966 311.358 200.294C316.326 203.623 327.266 203.734 330.043 194.473C329.76 201.593 328.017 205.503 333.715 214.041C339.414 222.579 338.327 227.533 337.889 230.282C343.003 225.362 348.35 216.444 344.258 205.157C340.168 193.869 337.807 195.374 337.807 195.374C338.83 190.309 338.392 188.139 336.199 184.955C337.34 180.188 340.308 168.201 336.255 155.141C345.934 171.377 349.933 187.844 350.26 201.8C350.793 224.546 342.278 238.714 330.387 245.125C315.739 247.216 301.065 237.747 300.257 230.576C295.978 231.374 296.191 237.659 298.793 242.174C299.326 243.099 299.984 244.004 300.748 244.861C291.737 237.4 285.408 223.347 285.408 218.847C281.995 217.875 279.759 220.991 279.445 224.842C279.182 228.068 280.496 232.336 282.854 236.17C282.822 236.139 282.791 236.112 282.759 236.083C274.284 224.302 272.941 208.44 274.813 207.063C274.898 205.374 269.119 203.01 268.198 208.484C267.875 210.402 268.06 213.102 269.025 216.314C268.999 216.253 268.971 216.196 268.945 216.134C249.318 170.155 264.847 155.706 276.574 170.9C286.878 184.249 281.837 201.056 276.032 195.556C277.514 210.736 296.123 205.896 293.492 184.861C290.785 163.226 276.949 151.353 268.115 151.353C259.281 151.353 251.322 165.315 258.591 193.238C265.859 221.16 283.53 252.467 310.034 252.467C326.37 252.467 354.726 247.995 354.193 202.492C360.288 223.662 377.74 261.197 429.335 251.686C486.06 241.23 492.417 169.269 492.828 162.15C493.239 155.029 494.267 126.139 495.294 124.105C496.322 122.07 498.469 123.889 498.495 125.323C498.322 118.817 497.7 106.192 497.7 106.192Z" fill="#EABD63"/>
</g>
<mask id="mask16" mask-type="alpha" maskUnits="userSpaceOnUse" x="247" y="4" width="252" height="293">
<path fill-rule="evenodd" clip-rule="evenodd" d="M269.992 30.4461C264.825 42.5037 247.742 84.5521 247.742 143.317C247.742 204.293 272.342 257.578 278.612 264.467C284.883 271.354 305.206 296.078 373.119 296.078C441.032 296.078 461.355 271.354 467.625 264.467C473.896 257.578 498.495 204.293 498.495 143.317C498.495 84.5521 481.412 42.5037 476.245 30.4461C468.342 12.0058 425.702 4.36552 373.119 4.36552C320.535 4.36552 277.896 12.0058 269.992 30.4461Z" fill="white"/>
</mask>
<g mask="url(#mask16)">
<path fill-rule="evenodd" clip-rule="evenodd" d="M401.616 113.003C400.741 114.631 401.143 117.25 402.568 118.624C405.289 121.244 410.808 122.299 411.524 124.031C415.675 113.113 404.723 107.225 401.616 113.003Z" fill="#EABD63"/>
</g>
<mask id="mask17" mask-type="alpha" maskUnits="userSpaceOnUse" x="247" y="4" width="252" height="293">
<path fill-rule="evenodd" clip-rule="evenodd" d="M269.992 30.4461C264.825 42.5037 247.742 84.5521 247.742 143.317C247.742 204.293 272.342 257.578 278.612 264.467C284.883 271.354 305.206 296.078 373.119 296.078C441.032 296.078 461.355 271.354 467.625 264.467C473.896 257.578 498.495 204.293 498.495 143.317C498.495 84.5521 481.412 42.5037 476.245 30.4461C468.342 12.0058 425.702 4.36552 373.119 4.36552C320.535 4.36552 277.896 12.0058 269.992 30.4461Z" fill="white"/>
</mask>
<g mask="url(#mask17)">
<path fill-rule="evenodd" clip-rule="evenodd" d="M375.675 163.878C377.881 169.912 384.092 168.508 389.334 163.092C393.888 158.387 398.097 156.43 403.031 154.631C386.364 145.025 372.858 156.167 375.675 163.878Z" fill="#EABD63"/>
</g>
<mask id="mask18" mask-type="alpha" maskUnits="userSpaceOnUse" x="247" y="4" width="252" height="293">
<path fill-rule="evenodd" clip-rule="evenodd" d="M269.992 30.4461C264.825 42.5037 247.742 84.5521 247.742 143.317C247.742 204.293 272.342 257.578 278.612 264.467C284.883 271.354 305.206 296.078 373.119 296.078C441.032 296.078 461.355 271.354 467.625 264.467C473.896 257.578 498.495 204.293 498.495 143.317C498.495 84.5521 481.412 42.5037 476.245 30.4461C468.342 12.0058 425.702 4.36552 373.119 4.36552C320.535 4.36552 277.896 12.0058 269.992 30.4461Z" fill="white"/>
</mask>
<g mask="url(#mask18)">
<path fill-rule="evenodd" clip-rule="evenodd" d="M441.107 102.563C442.446 106.244 444.781 110.72 452.383 107.999C459.362 105.5 463.659 104.574 471.695 107.011C466.245 99.6489 457.991 89.4619 446.912 91.4525C440.576 92.5921 439.545 98.2668 441.107 102.563Z" fill="#EABD63"/>
</g>
<mask id="mask19" mask-type="alpha" maskUnits="userSpaceOnUse" x="247" y="4" width="252" height="293">
<path fill-rule="evenodd" clip-rule="evenodd" d="M269.992 30.4461C264.825 42.5037 247.742 84.5521 247.742 143.317C247.742 204.293 272.342 257.578 278.612 264.467C284.883 271.354 305.206 296.078 373.119 296.078C441.032 296.078 461.355 271.354 467.625 264.467C473.896 257.578 498.495 204.293 498.495 143.317C498.495 84.5521 481.412 42.5037 476.245 30.4461C468.342 12.0058 425.702 4.36552 373.119 4.36552C320.535 4.36552 277.896 12.0058 269.992 30.4461Z" fill="white"/>
</mask>
<g mask="url(#mask19)">
<path fill-rule="evenodd" clip-rule="evenodd" d="M413 87.7198C410.697 83.1539 397.278 83.7691 396.181 97.071C390.965 91.7087 378.789 96.8471 383.087 108.016C377.016 111.609 373.116 118.15 377.796 125.552C383.539 134.63 392.483 127.115 403.456 124.296C397.96 122.148 394.148 115.494 399.056 109.451C403.966 103.407 411.197 107.013 413.373 110.691C412.573 97.8446 417.182 96.0145 413 87.7198Z" fill="#EABD63"/>
</g>
<mask id="mask20" mask-type="alpha" maskUnits="userSpaceOnUse" x="247" y="4" width="252" height="293">
<path fill-rule="evenodd" clip-rule="evenodd" d="M269.992 30.4461C264.825 42.5037 247.742 84.5521 247.742 143.317C247.742 204.293 272.342 257.578 278.612 264.467C284.883 271.354 305.206 296.078 373.119 296.078C441.032 296.078 461.355 271.354 467.625 264.467C473.896 257.578 498.495 204.293 498.495 143.317C498.495 84.5521 481.412 42.5037 476.245 30.4461C468.342 12.0058 425.702 4.36552 373.119 4.36552C320.535 4.36552 277.896 12.0058 269.992 30.4461Z" fill="white"/>
</mask>
<g mask="url(#mask20)">
<path fill-rule="evenodd" clip-rule="evenodd" d="M325.096 215.368C326.582 213.44 327.794 208.862 326.123 204.064C324.215 205.52 319.923 206.472 318.062 208.246C315.768 210.432 315.32 213.227 317.468 215.825C319.489 218.268 322.856 218.275 325.096 215.368Z" fill="#EABD63"/>
</g>
<mask id="mask21" mask-type="alpha" maskUnits="userSpaceOnUse" x="247" y="4" width="252" height="293">
<path fill-rule="evenodd" clip-rule="evenodd" d="M269.992 30.4461C264.825 42.5037 247.742 84.5521 247.742 143.317C247.742 204.293 272.342 257.578 278.612 264.467C284.883 271.354 305.206 296.078 373.119 296.078C441.032 296.078 461.355 271.354 467.625 264.467C473.896 257.578 498.495 204.293 498.495 143.317C498.495 84.5521 481.412 42.5037 476.245 30.4461C468.342 12.0058 425.702 4.36552 373.119 4.36552C320.535 4.36552 277.896 12.0058 269.992 30.4461Z" fill="white"/>
</mask>
<g mask="url(#mask21)">
<path fill-rule="evenodd" clip-rule="evenodd" d="M296.563 208.568C291.44 218.713 300.855 223.649 304.731 222.279C302.699 226.12 307.46 235.99 316.134 229.133C317.883 235.03 321.597 238.183 327.631 235.441C333.667 232.699 336.739 222.24 329.089 213.741C328.31 219.695 322.547 226.233 315.545 220.004C308.542 213.774 315.103 207.111 316.134 206.197C311.703 205.786 301.686 198.422 296.563 208.568Z" fill="#EABD63"/>
</g>
<mask id="mask22" mask-type="alpha" maskUnits="userSpaceOnUse" x="247" y="4" width="252" height="293">
<path fill-rule="evenodd" clip-rule="evenodd" d="M269.992 30.4461C264.825 42.5037 247.742 84.5521 247.742 143.317C247.742 204.293 272.342 257.578 278.612 264.467C284.883 271.354 305.206 296.078 373.119 296.078C441.032 296.078 461.355 271.354 467.625 264.467C473.896 257.578 498.495 204.293 498.495 143.317C498.495 84.5521 481.412 42.5037 476.245 30.4461C468.342 12.0058 425.702 4.36552 373.119 4.36552C320.535 4.36552 277.896 12.0058 269.992 30.4461Z" fill="white"/>
</mask>
<g mask="url(#mask22)">
<path fill-rule="evenodd" clip-rule="evenodd" d="M350.809 256.562C353.044 255.036 354.729 253.238 355.98 251.237C356.85 254.962 358.668 258.527 362.136 261.964C364.728 258.401 365.73 255.296 365.739 252.101C368.198 255.265 371.304 257.724 375.28 259.34C380.441 261.435 387.704 261.108 388.631 254.605C376.682 253.942 365.971 253.175 356.665 220.503C356.568 243.124 349.441 253.839 336.938 254.555C339.488 261.108 346.325 259.622 350.809 256.562Z" fill="#EABD63"/>
</g>
<mask id="mask23" mask-type="alpha" maskUnits="userSpaceOnUse" x="247" y="4" width="252" height="293">
<path fill-rule="evenodd" clip-rule="evenodd" d="M269.992 30.4461C264.825 42.5037 247.742 84.5521 247.742 143.317C247.742 204.293 272.342 257.578 278.612 264.467C284.883 271.354 305.206 296.078 373.119 296.078C441.032 296.078 461.355 271.354 467.625 264.467C473.896 257.578 498.495 204.293 498.495 143.317C498.495 84.5521 481.412 42.5037 476.245 30.4461C468.342 12.0058 425.702 4.36552 373.119 4.36552C320.535 4.36552 277.896 12.0058 269.992 30.4461Z" fill="white"/>
</mask>
<g mask="url(#mask23)">
<path fill-rule="evenodd" clip-rule="evenodd" d="M471.68 152.491C474.08 152.368 474.826 149.29 474.952 147.243C475.077 145.194 474.547 141.637 472.427 141.648C470.304 141.659 469.093 145.199 468.93 147.276C468.767 149.35 469.279 152.612 471.68 152.491Z" fill="#EABD63"/>
</g>
<mask id="mask24" mask-type="alpha" maskUnits="userSpaceOnUse" x="247" y="4" width="252" height="293">
<path fill-rule="evenodd" clip-rule="evenodd" d="M269.992 30.4461C264.825 42.5037 247.742 84.5521 247.742 143.317C247.742 204.293 272.342 257.578 278.612 264.467C284.883 271.354 305.206 296.078 373.119 296.078C441.032 296.078 461.355 271.354 467.625 264.467C473.896 257.578 498.495 204.293 498.495 143.317C498.495 84.5521 481.412 42.5037 476.245 30.4461C468.342 12.0058 425.702 4.36552 373.119 4.36552C320.535 4.36552 277.896 12.0058 269.992 30.4461Z" fill="white"/>
</mask>
<g mask="url(#mask24)">
<path fill-rule="evenodd" clip-rule="evenodd" d="M350.668 120.438C350.668 117.329 348.421 114.808 345.65 114.808C342.878 114.808 340.631 117.329 340.631 120.438C340.631 123.549 342.878 126.068 345.65 126.068C348.421 126.068 350.668 123.549 350.668 120.438Z" fill="#EABD63"/>
</g>
<mask id="mask25" mask-type="alpha" maskUnits="userSpaceOnUse" x="247" y="4" width="252" height="293">
<path fill-rule="evenodd" clip-rule="evenodd" d="M269.992 30.4461C264.825 42.5037 247.742 84.5521 247.742 143.317C247.742 204.293 272.342 257.578 278.612 264.467C284.883 271.354 305.206 296.078 373.119 296.078C441.032 296.078 461.355 271.354 467.625 264.467C473.896 257.578 498.495 204.293 498.495 143.317C498.495 84.5521 481.412 42.5037 476.245 30.4461C468.342 12.0058 425.702 4.36552 373.119 4.36552C320.535 4.36552 277.896 12.0058 269.992 30.4461Z" fill="white"/>
</mask>
<g mask="url(#mask25)">
<path fill-rule="evenodd" clip-rule="evenodd" d="M272.655 176.008C270.428 174.874 268.311 176.408 267.923 179.434C267.536 182.459 269.025 185.831 271.252 186.965C273.477 188.099 275.595 186.566 275.982 183.541C276.37 180.515 274.881 177.142 272.655 176.008Z" fill="#EABD63"/>
</g>
<mask id="mask26" mask-type="alpha" maskUnits="userSpaceOnUse" x="247" y="4" width="252" height="293">
<path fill-rule="evenodd" clip-rule="evenodd" d="M269.992 30.4461C264.825 42.5037 247.742 84.5521 247.742 143.317C247.742 204.293 272.342 257.578 278.612 264.467C284.883 271.354 305.206 296.078 373.119 296.078C441.032 296.078 461.355 271.354 467.625 264.467C473.896 257.578 498.495 204.293 498.495 143.317C498.495 84.5521 481.412 42.5037 476.245 30.4461C468.342 12.0058 425.702 4.36552 373.119 4.36552C320.535 4.36552 277.896 12.0058 269.992 30.4461Z" fill="white"/>
</mask>
<g mask="url(#mask26)">
<path fill-rule="evenodd" clip-rule="evenodd" d="M373.814 275.324C317.258 275.324 277.045 253.804 261.655 233.533C264.237 238.76 267.386 247.998 269.345 251.179C279.66 264.357 322.449 287.419 373.814 287.419C425.18 287.419 467.967 264.357 478.283 251.179C480.242 247.998 483.391 238.76 485.973 233.533C470.582 253.804 430.369 275.324 373.814 275.324Z" fill="#EABD63"/>
</g>
<mask id="mask27" mask-type="alpha" maskUnits="userSpaceOnUse" x="247" y="4" width="252" height="293">
<path fill-rule="evenodd" clip-rule="evenodd" d="M269.992 30.4461C264.825 42.5037 247.742 84.5521 247.742 143.317C247.742 204.293 272.342 257.578 278.612 264.467C284.883 271.354 305.206 296.078 373.119 296.078C441.032 296.078 461.355 271.354 467.625 264.467C473.896 257.578 498.495 204.293 498.495 143.317C498.495 84.5521 481.412 42.5037 476.245 30.4461C468.342 12.0058 425.702 4.36552 373.119 4.36552C320.535 4.36552 277.896 12.0058 269.992 30.4461Z" fill="white"/>
</mask>
<g mask="url(#mask27)">
<path fill-rule="evenodd" clip-rule="evenodd" d="M261.286 49.2805C245.949 144.468 276.045 238.177 324.932 291.999C311.183 292.268 294.163 296.079 275.696 276.417C250.496 223.384 225.842 128.792 261.286 49.2805Z" fill="#7C3813"/>
</g>
<mask id="mask28" mask-type="alpha" maskUnits="userSpaceOnUse" x="250" y="33" width="249" height="255">
<path fill-rule="evenodd" clip-rule="evenodd" d="M373.174 62.5658C293.244 62.5658 260.908 46.9134 265.77 33.8759C265.77 33.8759 262.555 41.85 260.729 47.4349C258.621 61.2392 293.038 77.2937 373.174 77.2937C453.31 77.2937 487.726 61.2392 485.619 47.4349C483.792 41.85 480.578 33.8759 480.578 33.8759C485.441 46.9134 453.105 62.5658 373.174 62.5658ZM250.778 78.0693C250.778 78.0693 250.952 78.1986 251.251 78.4253C251.551 78.8274 252.041 79.1385 252.66 79.4934C253.765 80.3315 255.345 81.5311 257.313 83.0341C259.785 85.8276 262.426 90.8548 264.132 100.807C265.718 110.061 264.696 117.704 262.264 117.01C261.461 119.757 264.519 124.182 266.709 124.271C273.433 124.949 273.961 116.257 271.334 104.544C269.761 97.5176 266.526 91.258 260.68 85.6085C262.731 87.1794 265.058 88.9706 267.619 90.9468C272.306 95.8415 275.988 100.784 278.296 119.647C279.832 132.189 273.901 133.088 272.493 131.891C271.727 136.3 274.8 141.272 278.726 141.72C282.653 142.171 290.739 140.212 288.789 123.599C287.468 112.359 284.335 105.465 279.163 99.9014C281.095 101.408 283.099 102.974 285.158 104.59C303.999 126.202 295.755 148.613 289.214 148.661C290.321 161.765 310.327 163.19 309.084 142.871C308.291 129.943 304.849 121.62 296.916 113.865C299.424 115.853 301.984 117.895 304.582 119.971C313.273 126.704 319.249 168.348 302.96 165.838C303.357 170.815 308.392 177.528 315.859 176.819C330.21 175.461 330.672 160.261 327.415 150.557C325.324 144.323 322.726 137.418 317.127 130.737C321.361 134.825 325.12 139.024 328.444 143.287C334.158 151.942 339.301 164.799 332.182 181.936C330.282 181.936 328.092 180.485 325.464 188.611C321.666 187.014 303.114 173.52 296.981 200.072C302.531 197.026 306.475 196.737 311.44 200.072C316.407 203.411 327.341 203.523 330.117 194.237C329.836 201.376 328.092 205.297 333.788 213.858C339.486 222.418 338.398 227.385 337.96 230.142C343.072 225.21 348.416 216.267 344.326 204.948C340.238 193.631 337.878 195.139 337.878 195.139C338.9 190.061 338.462 187.885 336.272 184.693C337.411 179.913 340.378 167.894 336.328 154.799C346.001 171.079 349.999 187.59 350.325 201.584C350.858 224.391 342.347 238.597 330.461 245.025C315.819 247.122 301.152 237.627 300.346 230.436C296.068 231.236 296.28 237.539 298.881 242.066C299.414 242.993 300.071 243.9 300.836 244.761C291.828 237.279 285.502 223.187 285.502 218.677C282.091 217.701 279.855 220.827 279.541 224.687C279.28 227.921 280.593 232.201 282.949 236.045C282.917 236.016 282.886 235.987 282.854 235.958C274.382 224.146 273.041 208.242 274.912 206.861C274.997 205.166 269.22 202.797 268.299 208.285C267.977 210.208 268.162 212.915 269.128 216.137C269.1 216.075 269.072 216.017 269.046 215.955C249.428 169.853 264.951 155.366 276.672 170.6C286.971 183.986 281.933 200.838 276.13 195.323C277.611 210.543 296.214 205.69 293.583 184.599C290.877 162.907 277.048 151.001 268.217 151.001C259.386 151.001 251.431 165.001 258.696 192.999C265.962 220.995 283.625 252.386 310.116 252.386C326.445 252.386 354.79 247.903 354.256 202.277C360.35 223.504 377.793 261.14 429.366 251.603C486.067 241.118 492.421 168.966 492.831 161.826C493.242 154.686 494.268 125.719 495.296 123.679C496.318 121.651 498.446 123.445 498.495 124.878C498.321 118.346 497.7 105.72 497.7 105.72C496.118 100.425 493.388 98.4751 491.884 101.915C491.41 103.001 491.085 104.955 490.871 107.467C490.019 95.0527 488.399 83.4416 489.823 81.5858C487.662 77.1995 481.83 80.0981 481.519 90.9238C481.233 100.913 482.541 102.845 484.556 108.864C479.816 98.4433 475.56 84.2139 478.606 80.8179C474.972 77.5522 468.587 85.5866 471.135 94.2574C472.431 98.6646 474.381 105.032 478.071 109.563C464.639 109.622 453.008 117.871 447.338 137.563C441.668 157.255 451.788 173.68 460.995 174.052C470.2 174.426 480.7 164.502 483.234 142.413C484.369 132.537 481.495 127.232 478.146 126.265C474.765 125.29 469.09 128.674 469.919 137.582C472.014 134.113 479.507 134.532 478.655 146.148C478.034 154.62 473.3 161.249 467.57 161.715C463.49 162.048 457.801 158.094 456.579 146.693C454.954 131.528 461.872 117.7 475.838 115.524C487.899 113.647 490.098 133.793 491.053 141.22C491.129 143.414 491.19 145.293 491.217 146.693C491.395 155.911 490.984 159.174 490.778 162.439C490.712 163.476 490.224 171.664 487.705 182.675C489.262 172.56 487.862 165.688 485.487 163.573C481.106 159.669 477.487 166.562 478.065 169.825C483.052 165.236 485.842 189.182 478.456 209.314C478.238 209.76 478.012 210.207 477.785 210.654C480.041 204.022 480.379 198.498 480.603 195.582C481.369 185.56 480.098 179.692 475.541 177.682C472.047 176.139 467.891 178.102 466.964 181.396C474.512 183.869 472.725 220.066 450.426 241.419C450.27 241.513 450.117 241.606 449.962 241.697C452.481 239.093 454.768 235.698 456.617 231.234C463.923 213.602 452.625 213.721 449.245 214.179C449.241 227.372 437.91 242.533 427.283 248.458C435.196 243.254 440.728 227.07 430.781 227.022C431.693 239.333 416.579 246.172 403.159 247.239C413.233 245.854 421.804 239.162 416.685 232.536C409.224 241.912 381.555 238.526 367.216 222.211C360.659 211.818 356.951 201.021 355.048 194.346C361.899 206.333 371.742 225.512 399.741 225.512C430.77 225.512 442.624 197.956 451.671 196.252C454.732 195.676 455.251 199.555 453.844 201.236C460.831 200.148 464.408 194.637 463.511 188.365C462.952 184.459 456.772 180.18 449.475 185.557C447.651 186.902 444.026 191.014 442.476 194.102C447.638 178.981 446.303 159.096 430.066 139.448C431.342 136.89 432.019 134.706 428.975 129.33C431.173 124.794 440.822 100.44 419.675 88.5094C418.661 95.0615 417.352 102.259 416.336 107.299C415.361 112.145 413.292 123.206 419.45 129.873C416.255 127.027 409.548 124.642 401.75 128.826C391.262 134.454 385.517 135.21 382.81 135.882C387.546 142.601 402.74 155.367 419.492 140.418C421.535 143.104 423.904 144.953 426.27 142.937C434.955 153.765 438.997 163.772 440.204 173.054C436.688 161.192 426.532 153.321 412.573 155.664C400.282 157.728 395.974 167.39 401.139 176.794C407.779 168.349 423.171 168.422 425.958 182.924C428.648 196.926 422.477 212.619 406.46 216.701C409.293 214.679 414.3 209.278 415.727 205.43C422.51 187.148 404.663 176.179 395.363 188.497C402.118 187.655 405.637 200.335 398.616 208.985C391.595 217.636 383.89 216.465 377.336 213.554C368.854 208.754 362.58 199.204 356.461 187.74C360.88 193.377 366.442 197.996 374.032 201.174C388.613 207.282 398.559 191.819 380.284 179.958C370.843 190.317 349.72 172.407 343.647 162.806C342.586 160.833 341.492 158.861 340.364 156.899C344.993 162.252 351.862 166.007 355.394 166.383C363.301 167.224 370.217 163.11 366.828 153.198C347.642 154.1 343.307 144.722 327.553 133.992C348.117 143.671 370.708 137.58 371.807 114.471C372.533 99.1861 361.448 88.7208 349.671 90.8997C338.194 93.0239 332.838 104.222 336.021 113.385C344.108 101.664 358.705 108.247 358.146 119.25C357.339 135.106 342.464 134.703 332.861 131.479C325.661 129.061 314.403 122.199 302.128 113.822C309.448 116.818 316.126 116.58 320.961 114.955C336.037 109.885 333.913 90.5404 320.123 88.9202C319.765 105.123 298.437 108.481 287.862 103.777C286.6 102.866 285.34 101.951 284.083 101.034C295.164 104.681 309.967 102.176 309.603 90.9874C309.399 84.6675 302.395 85.5 299.35 87.1192C298.814 98.2801 282.018 96.8526 275.288 94.5554C273.891 93.518 272.511 92.4893 271.149 91.4705C276.48 94.0175 284.487 94.8599 287.352 90.5404C291.007 85.0279 288.427 82.0788 281.084 82.4381C282.516 88.2004 267.514 87.2966 262.466 84.949C258.291 81.8038 254.451 78.9008 251.118 76.4085C250.922 77.3506 250.778 78.0693 250.778 78.0693ZM396.226 96.5733C391.012 91.1977 378.842 96.3498 383.137 107.548C377.069 111.151 373.171 117.709 377.849 125.131C383.589 134.233 392.53 126.698 403.497 123.871C398.003 121.717 394.194 115.046 399.101 108.986C404.008 102.927 411.234 106.542 413.412 110.23C412.611 97.3489 417.218 95.515 413.038 87.198C412.23 85.5888 410.05 84.6214 407.515 84.6214C402.832 84.6214 396.937 87.9211 396.226 96.5733ZM446.935 90.9403C440.601 92.0818 439.571 97.7729 441.133 102.08C442.471 105.771 444.805 110.259 452.403 107.53C459.38 105.025 463.674 104.097 471.707 106.54C466.729 99.7951 459.412 90.6872 449.741 90.6861C448.826 90.6861 447.891 90.7672 446.935 90.9403ZM401.658 112.549C400.783 114.182 401.187 116.806 402.611 118.184C405.329 120.811 410.846 121.869 411.563 123.606C414.598 115.593 409.549 110.282 405.405 110.282C403.887 110.282 402.491 110.995 401.658 112.549ZM340.702 120.003C340.702 123.122 342.948 125.649 345.717 125.649C348.488 125.649 350.733 123.122 350.733 120.003C350.733 116.886 348.488 114.359 345.717 114.359C342.948 114.359 340.702 116.886 340.702 120.003ZM472.437 141.271C470.316 141.28 469.106 144.831 468.943 146.912C468.78 148.994 469.292 152.264 471.692 152.141C474.091 152.018 474.837 148.934 474.962 146.881C475.087 144.829 474.559 141.271 472.447 141.271C472.444 141.271 472.44 141.271 472.437 141.271ZM375.729 163.56C377.936 169.611 384.143 168.202 389.382 162.771C393.933 158.054 398.141 156.092 403.073 154.288C398.477 151.632 394.123 150.557 390.285 150.557C380.208 150.557 373.69 157.96 375.729 163.56ZM268.025 179.157C267.638 182.191 269.128 185.571 271.352 186.71C273.577 187.846 275.693 186.309 276.081 183.275C276.468 180.241 274.98 176.86 272.754 175.723C272.257 175.469 271.765 175.348 271.296 175.348C269.669 175.348 268.326 176.802 268.025 179.157ZM296.652 208.37C291.531 218.542 300.942 223.492 304.817 222.117C302.785 225.969 307.545 235.864 316.214 228.99C317.963 234.903 321.675 238.064 327.708 235.316C333.74 232.565 336.811 222.078 329.165 213.557C328.386 219.526 322.626 226.083 315.625 219.836C308.626 213.589 315.185 206.909 316.214 205.992C313.572 205.746 308.942 203.019 304.549 203.019C301.578 203.018 298.718 204.265 296.652 208.37ZM318.142 208.047C315.849 210.24 315.401 213.042 317.549 215.646C319.569 218.097 322.933 218.102 325.173 215.188C326.658 213.256 327.868 208.665 326.199 203.854C324.292 205.314 320.002 206.269 318.142 208.047ZM337.009 254.48C339.558 261.05 346.393 259.56 350.875 256.493C353.109 254.962 354.791 253.16 356.043 251.153C356.912 254.888 358.73 258.462 362.195 261.909C364.787 258.336 365.789 255.223 365.798 252.019C368.255 255.192 371.361 257.657 375.334 259.277C380.493 261.379 387.753 261.05 388.679 254.531C376.736 253.865 366.029 253.097 356.727 220.337C356.631 243.018 349.507 253.763 337.009 254.48ZM373.87 275.306C317.339 275.306 277.143 253.726 261.759 233.403C264.34 238.643 267.489 247.906 269.446 251.096C279.757 264.308 322.526 287.433 373.87 287.433C425.211 287.433 467.981 264.308 478.291 251.096C480.251 247.906 483.398 238.643 485.98 233.403C470.594 253.726 430.399 275.306 373.87 275.306Z" fill="white"/>
</mask>
<g mask="url(#mask28)">
<path fill-rule="evenodd" clip-rule="evenodd" d="M309.668 48.7111C304.611 127.001 329.483 178.187 369.113 178.187C408.743 178.187 441.882 153.56 440.488 44.4814C402.854 58.4019 342.516 58.8981 309.668 48.7111Z" fill="#EAEAEA"/>
</g>
</g>
<defs>
<filter id="filter0_d" x="0.545532" y="0.971313" width="281" height="261.074" filterUnits="userSpaceOnUse" color-interpolation-filters="sRGB">
<feFlood flood-opacity="0" result="BackgroundImageFix"/>
<feColorMatrix in="SourceAlpha" type="matrix" values="0 0 0 0 0 0 0 0 0 0 0 0 0 0 0 0 0 0 127 0"/>
<feOffset dy="8"/>
<feGaussianBlur stdDeviation="4"/>
<feColorMatrix type="matrix" values="0 0 0 0 0.163166 0 0 0 0 0.174163 0 0 0 0 0.230242 0 0 0 0.5 0"/>
<feBlend mode="normal" in2="BackgroundImageFix" result="effect1_dropShadow"/>
<feBlend mode="normal" in="SourceGraphic" in2="effect1_dropShadow" result="shape"/>
</filter>
<filter id="filter1_d" x="239.546" y="4.36334" width="267" height="307.715" filterUnits="userSpaceOnUse" color-interpolation-filters="sRGB">
<feFlood flood-opacity="0" result="BackgroundImageFix"/>
<feColorMatrix in="SourceAlpha" type="matrix" values="0 0 0 0 0 0 0 0 0 0 0 0 0 0 0 0 0 0 127 0"/>
<feOffset dy="8"/>
<feGaussianBlur stdDeviation="4"/>
<feColorMatrix type="matrix" values="0 0 0 0 0.163166 0 0 0 0 0.174163 0 0 0 0 0.230242 0 0 0 0.5 0"/>
<feBlend mode="normal" in2="BackgroundImageFix" result="effect1_dropShadow"/>
<feBlend mode="normal" in="SourceGraphic" in2="effect1_dropShadow" result="shape"/>
</filter>
</defs>
</svg>
